<?xml version="1.0" encoding="UTF-8"?>
<svg width="480px" height="480px" viewBox="0 0 480 480" version="1.1" xmlns="http://www.w3.org/2000/svg" xmlns:xlink="http://www.w3.org/1999/xlink">
    <title>Artboard</title>
    <g id="Artboard" stroke="none" stroke-width="1" fill="none" fill-rule="evenodd">
        <g id="safari-pinned-tab" transform="translate(47.000000, 71.000000)" fill="#FF3C80" fill-rule="nonzero">
            <g id="Group" transform="translate(193.150000, 169.000000) scale(-1, 1) rotate(-180.000000) translate(-193.150000, -169.000000) translate(0.000000, 0.000000)">
                <path d="M90.3,336.8 C89.4,335.7 84.9,328.2 70,302.9 L67.2,298.3 L99.5,243.9 C117.3,214 133.4,186.9 135.4,183.8 L138.9,178 L158,178 C168.4,178 177,178.4 177,178.8 C177,179.3 161.6,205.5 142.9,237.1 C124.1,268.7 108.3,295.5 107.8,296.6 C106.9,298.4 108.4,301.5 117.1,316.1 C122.7,325.7 128,334.5 128.8,335.8 L130.2,338 L110.7,338 C96.3,338 91,337.7 90.3,336.8 Z" id="Path"></path>
                <path d="M241.9,333.3 C238.9,327.6 226.1,304.5 212.6,280.1 C203.1,262.9 202.1,260.3 203.9,258.4 C204.5,257.9 206.4,254.6 208.3,251 C213.8,240.6 220,229.6 220.9,228.7 C221.5,228.1 232.5,247 245.1,270.5 C246.5,273.3 253.4,285.6 260.2,298 C267.1,310.4 274.8,324.4 277.4,329.3 L282.2,338 L263.3,338 L244.5,338 L241.9,333.3 Z" id="Path"></path>
                <path d="M132.8,316.3 C128,308.1 123.8,300.7 123.5,299.8 C123,298.7 128.2,288.8 139.3,269.8 C148.4,254.2 156.6,240.1 157.7,238.3 C169.4,217.8 188.4,185.9 188.9,185.6 C189.3,185.3 193.8,192.3 198.9,201.1 C207.2,215.4 208.1,217.4 207.2,219.6 C206.5,220.9 195.9,239.4 183.4,260.7 C171,282.1 156.7,306.6 151.7,315.2 C146.6,323.9 142.3,331 142,331 C141.7,331 137.5,324.4 132.8,316.3 Z" id="Path"></path>
                <path d="M291.7,327.3 C290.4,325.2 286.4,318.1 282.8,311.5 C279.2,304.9 275.2,297.5 273.8,295 C269.2,286.8 237.7,229.6 235.4,225.4 L233.2,221.3 L251.9,221.3 C268.2,221.3 270.8,221.5 271.7,222.9 C272.9,224.9 273.6,226.1 295.4,265.6 L313,297.7 L309.4,304.1 C307.4,307.6 305.4,311.4 304.9,312.5 C304.4,313.6 303,316.1 301.8,318 C300.7,319.9 298.6,323.6 297.3,326.3 C296,328.9 294.7,331 294.5,331 C294.2,331 293,329.3 291.7,327.3 Z" id="Path"></path>
                <path d="M9.5,194.3 C4.5,186.2 0.4,179.3 0.198912019,178.9 C-1.29340982e-14,178.5 27.4,178.1 60.9,178.1 C94.5,178.1 122,178.4 122,178.8 C122,179.1 120.9,181 119.7,182.9 C118.4,184.9 114.2,191.6 110.4,197.7 L103.5,209 L61,209 L18.5,209 L9.5,194.3 Z" id="Path"></path>
                <path d="M221.3,207.8 C220,206.1 203,176.5 203,175.9 C203,175.7 234.5,175.5 273.1,175.5 C311.6,175.5 343.5,175.3 343.9,175 C344.3,174.7 349.5,166.1 355.4,155.7 C361.3,145.4 366.6,136.8 367,136.5 C367.8,136 386.2,166.6 386.3,168.6 C386.3,169.5 370.7,197 365.4,205.3 L363,209 L292.6,209 C237.5,209 222,208.7 221.3,207.8 Z" id="Path"></path>
                <path d="M130.5,150.3 C125.5,141.6 120.2,132 118.6,129 C117.1,126 115,122.4 114,121 C113.1,119.6 109.9,114.2 107.1,109 C104.2,103.8 101,97.9 99.8,96 C94.1,86.1 74,50.2 74,49.8 C74,49.5 82.5,49.3 92.9,49.2 L111.9,49.2 L135.1,90.3 C147.9,113 162.8,139.3 168.1,148.8 L177.8,166 L158.6,166 L139.4,166 L130.5,150.3 Z" id="Path"></path>
                <path d="M1.1,157.7 C3.7,152.9 16.4,132.4 17.8,130.8 C19.2,129.1 22.6,129 61.4,129 L103.6,129 L111,141.1 C115.1,147.7 119.3,154.3 120.2,155.8 C121.1,157.3 121.900272,158.8 121.900272,159.2 C122,159.6 94.5,159.9 61,159.9 L-8.31769454e-15,159.9 L1.1,157.7 Z" id="Path"></path>
                <path d="M203,159.5 C203,159.1 211,146.1 217.3,136.3 L222,129 L289,129 L356,129 L350.9,137.3 C348,141.8 343.6,148.7 341.1,152.7 L336.5,159.9 L269.8,159.9 C233,159.9 203,159.7 203,159.5 Z" id="Path"></path>
                <path d="M183.7,143.8 C174.2,127.5 160.1,103.3 157.9,99.3 C155.6,95.3 137.8,64.6 127.5,47 C124.2,41.2 121.1,35.8 120.8,34.9 C120.2,33.4 117.5,33.2 97.4,33.1 C85,33.1 74.5,32.9 74.3,32.6 C73.9,32.3 77.1,26.5 90.9,2.8 L92.5,0 L115.6,0 L138.7,0 L162,40.3 C174.9,62.4 190.5,89.3 196.7,100 C202.9,110.8 208,120.1 208,120.8 C208,121.5 206.9,123.7 205.6,125.8 C204.3,127.8 200.2,134.8 196.5,141.3 C192.8,147.7 189.6,153 189.4,153 C189.2,153 186.6,148.8 183.7,143.8 Z" id="Path"></path>
                <path d="M235.9,111.6 C239.2,105.8 257.2,73.3 261.7,65 C277.6,35.8 293.3,7.9 294.1,7.5 C294.6,7.1 295.3,7.6 295.7,8.5 C296,9.4 299.8,16.4 304,24 C308.2,31.6 312,38.5 312.3,39.4 C312.7,40.3 310.5,45.2 307.1,51.2 C303.9,56.9 300,64 298.3,67 C296.7,70 291.1,80.2 286,89.5 C280.8,98.9 275.4,108.8 273.9,111.5 L271.1,116.5 L252.1,116.6 L233,116.7 L235.9,111.6 Z" id="Path"></path>
                <path d="M219.3,106.8 C218.2,105 215.6,100.4 213.5,96.5 C211.4,92.7 208.1,86.6 206.1,83 C203.1,77.7 202.6,76.1 203.5,74.5 C204.6,72.4 222.5,39.8 227.2,31.5 C228.7,28.8 233.2,20.5 237.2,13.3 L244.5,-5.68434189e-14 L263.3,-5.68434189e-14 C273.6,-5.68434189e-14 282,0.4 282,0.8 C282,1.2 281.6,2 281.1,2.5 C280.7,3.1 278.7,6.4 276.8,10 C274.9,13.6 272.4,18.1 271.3,20 C270.2,21.9 267.8,26.2 266,29.5 C264.2,32.8 261.6,37.5 260.2,40 C258.9,42.5 250.1,58.4 240.7,75.5 C231.3,92.6 223.1,107.3 222.5,108.3 C221.3,110 221.1,109.9 219.3,106.8 Z" id="Path"></path>
            </g>
        </g>
    </g>
</svg>
