<?xml version="1.0" encoding="UTF-8"?>
<svg width="3040px" height="635px" viewBox="0 0 3040 635" version="1.1" xmlns="http://www.w3.org/2000/svg" xmlns:xlink="http://www.w3.org/1999/xlink">
    <title>edgeware_logo</title>
    <g id="edgeware_logo" stroke="none" stroke-width="1" fill="none" fill-rule="evenodd">
        <text id="Explorer" font-family="SFPro-Heavy, SF Pro" font-size="560" font-weight="600" fill="#111111">
            <tspan x="717" y="517">Explorer</tspan>
        </text>
        <path d="M307,0 C476.551418,0 614,137.448582 614,307 C614,476.551418 476.551418,614 307,614 C137.448582,614 0,476.551418 0,307 C0,137.448582 137.448582,0 307,0 Z M305.180171,324.914201 C304.94978,324.914201 301.954698,329.747929 298.614031,335.502367 C296.09701,339.817044 293.299673,344.612689 290.453281,349.495822 L289.709783,350.771408 C289.213578,351.622777 288.716498,352.475758 288.21976,353.328279 L287.475059,354.606459 L286.731782,355.882399 L286.173729,356.840521 C286.080852,356.999992 285.988046,357.159346 285.89532,357.318569 L285.339982,358.272224 C278.966058,369.218657 273.047811,379.410291 270.249159,384.314593 L270.013726,384.727617 C269.520937,385.59315 269.141626,386.266337 268.893606,386.716864 C267.386338,389.335773 260.100479,401.89955 251.914071,415.974882 L251.354569,416.936807 L251.354569,416.936807 L250.792619,417.902822 L250.792619,417.902822 L250.228566,418.872334 L250.228566,418.872334 L249.662752,419.844749 C249.568322,420.007027 249.473833,420.169401 249.379293,420.331859 L248.811483,421.307514 L248.811483,421.307514 L247.491098,423.575791 L247.270863,423.954058 L247.270863,423.954058 L246.170153,425.844279 C241.770839,433.398015 237.43373,440.831598 233.874191,446.908284 C230.072741,453.583432 226.501683,459.798225 226.156096,460.834024 C225.464924,462.560355 222.354647,462.790533 199.200362,462.905621 L198.261819,462.905954 C184.390187,462.915795 172.815542,463.143387 172.590215,463.481065 C172.129433,463.826331 175.815687,470.501479 191.712659,497.777515 L193.555786,501 L246.776081,501 L273.616619,454.619231 C276.291457,450.041 279.067069,445.283783 281.862163,440.488532 L283.260957,438.088389 L284.194175,436.486706 C284.816318,435.418816 285.438309,434.350981 286.059254,433.284748 L286.989777,431.686793 C287.609454,430.622549 288.227641,429.560681 288.843444,428.502734 L289.765249,426.918949 C299.729698,409.797339 308.947062,393.915666 313.589438,385.911243 L313.829697,385.492933 L314.307179,384.660516 C319.35995,375.844054 323.682349,368.055409 325.579069,364.30096 L325.848099,363.762494 C326.338771,362.767839 326.606523,362.144768 326.606523,361.972781 C326.606523,361.16716 325.339374,358.635207 323.841833,356.218343 C322.61171,354.327599 319.205216,348.554078 315.665475,342.406146 L315.203182,341.602407 C314.586231,340.528692 313.967938,339.448267 313.359047,338.379586 C309.096816,331.013905 305.410562,324.914201 305.180171,324.914201 Z M339.623609,378.085207 C338.356459,380.156805 335.361377,385.450888 332.942273,389.939349 C330.523169,394.312722 326.721719,401.333136 324.41781,405.476331 C320.961947,411.576036 320.385969,413.417456 321.422728,415.258876 C322.092467,416.536283 328.168494,427.619589 334.548245,439.19674 L335.232719,440.438614 C335.38498,440.714818 335.537309,440.991113 335.689638,441.267373 L336.415646,442.583781 L336.979257,443.605356 L336.979257,443.605356 L337.541084,444.623362 C342.213373,453.087911 346.618532,461.032232 348.724049,464.747041 C350.057891,467.145733 353.450997,473.384826 357.048826,479.917484 L357.540534,480.809787 C357.704744,481.107606 357.869202,481.405699 358.033735,481.703731 L358.527384,482.597317 C359.103162,483.638849 359.677721,484.675568 360.243593,485.693195 L368.65286,501 L391.195268,500.999144 C402.652508,500.976982 411.851152,500.528136 411.851152,500.07929 C411.851152,499.618935 411.39037,498.698225 410.814393,498.122781 C410.353611,497.432249 408.049702,493.63432 405.860989,489.491124 C405.382208,488.5848 404.870353,487.628912 404.349541,486.665623 L403.901499,485.839118 C402.179909,482.671441 400.436003,479.553929 399.525239,477.982249 C398.25809,475.795562 395.493399,470.846746 393.419881,467.048817 C391.346363,463.250888 388.351281,457.841716 386.738545,454.964497 C385.330857,452.259911 376.289166,435.92854 366.215359,417.632472 L365.571012,416.462082 C365.140597,415.680193 364.708568,414.895195 364.275434,414.107988 C353.447062,394.427811 344.001035,377.509763 343.309863,376.358876 C341.927517,374.402367 341.697127,374.517456 339.623609,378.085207 Z M355.405384,366.69142 L358.746052,372.560947 C360.684792,375.965272 367.027994,387.362132 373.466477,398.980807 L374.224125,400.348265 C380.158409,411.060691 386.030093,421.702695 388.466477,426.192308 C406.782552,459.798225 424.868237,491.907988 425.789801,492.368343 C426.365778,492.828698 427.172146,492.253254 427.632928,491.217456 C427.978514,490.181657 432.355941,482.125444 437.19415,473.378698 C442.032358,464.631953 446.409785,456.690828 446.755371,455.65503 C447.216153,454.619231 444.681853,448.979882 440.765208,442.074556 C439.782207,440.325207 438.741864,438.461281 437.707529,436.60281 L437.191155,435.674586 C434.52884,430.886849 431.977076,426.269034 430.628009,423.890533 C429.109221,421.045442 424.461623,412.57371 419.585721,403.69141 L419.07175,402.75514 L419.07175,402.75514 L418.547963,401.801011 C417.849287,400.528311 417.150142,399.254769 416.45897,397.995562 C415.851272,396.898049 415.241203,395.794614 414.633694,394.694508 L414.113715,393.752592 C408.922487,384.345905 404.02287,375.378119 402.520321,372.676036 L399.294849,366.921598 L377.407714,366.806509 L355.405384,366.69142 Z M291.817499,309.952663 L247.582449,309.952663 L237.330054,328.021598 C231.570282,338.03432 225.464924,349.08284 223.621797,352.535503 C221.893865,355.988166 219.474761,360.131361 218.322806,361.742604 C217.412077,363.157981 214.456855,368.125706 211.565442,373.369234 L211.171752,374.085662 L211.171752,374.085662 L210.771368,374.819623 C210.638392,375.064331 210.505972,375.308984 210.37432,375.553254 C210.090008,376.062583 209.803193,376.577748 209.515508,377.095413 L208.867437,378.262972 C205.986725,383.458378 203.141517,388.653783 201.965053,390.514793 C195.398913,401.90858 172.244629,443.225444 172.244629,443.685799 C172.244629,444.031065 182.036241,444.261243 194.016567,444.376331 L215.903702,444.376331 L242.629045,397.074852 C245.430598,392.111074 248.319481,386.997727 251.203249,381.895846 L252.568498,379.480657 L253.314682,378.160753 C253.438953,377.940942 253.563172,377.721225 253.687332,377.501616 L254.43152,376.185362 C265.581902,356.464088 276.132003,337.82716 280.643541,329.747929 L291.817499,309.952663 Z M160.700137,316.973991 L87,316.973077 L88.2671499,319.50503 C91.2622314,325.02929 105.892053,348.622485 107.504789,350.463905 C109.069143,352.361719 112.801245,352.52694 153.816443,352.535146 L206.34248,352.535503 L214.866943,338.609763 L215.107176,338.223562 L215.587781,337.451845 C215.667859,337.323359 215.747913,337.194958 215.827924,337.066672 L216.307317,336.298556 L216.77594,335.548658 C220.826692,329.070466 224.568091,323.185052 225.464924,321.691716 C226.501683,319.965385 227.423871,318.239053 227.423871,317.778698 C227.535027,317.332062 197.719514,316.993757 160.700137,316.973991 Z M474.632669,316.973077 L394.003906,316.973692 C353.362969,316.986888 320.846751,317.21016 320.846751,317.433432 C320.846751,317.746154 325.099362,324.750534 330.101886,332.746434 L330.551785,333.464983 C330.777644,333.825432 331.004796,334.187527 331.232928,334.550757 L331.684123,335.268593 L331.910505,335.628342 L331.910505,335.628342 L332.364505,336.348958 C332.440287,336.469148 332.516118,336.589371 332.591988,336.709606 L333.047587,337.431038 L333.959434,338.871389 C334.035368,338.991133 334.111274,339.110782 334.18714,339.230316 L334.641776,339.946016 C335.09576,340.660059 335.547522,341.3687 335.994647,342.068011 L336.440137,342.764066 C336.735981,343.225835 337.029407,343.682876 337.3197,344.134024 L342.733886,352.535503 L497.09578,352.535503 L491.220813,342.983136 C490.998102,342.63787 490.767711,342.280327 490.530801,341.912316 L489.801673,340.778683 C486.567429,335.745844 482.427561,329.249211 479.931659,325.259467 L474.632669,316.973077 Z M505.159462,260.464497 L420.30802,260.464914 C359.881787,260.478584 342.717758,260.830479 341.927517,261.845562 C341.248483,262.732707 336.851008,270.221663 332.246829,278.207451 L331.800736,278.981616 L331.800736,278.981616 L331.354059,279.757652 C331.279604,279.88708 331.205154,280.016534 331.130723,280.145989 L330.520839,281.207552 L330.310921,281.573307 L330.310921,281.573307 L329.892347,282.303199 C329.683556,282.667475 329.47558,283.030618 329.268756,283.392046 L328.856742,284.112445 C324.548788,291.649013 320.846751,298.25864 320.846751,298.558876 C320.846751,298.779846 354.288449,299.000817 396.303962,299.018141 L398.94087,299.018956 L399.603428,299.019076 L399.603428,299.019076 L405.568977,299.019849 C448.121186,299.033145 482.710173,299.259766 483.157132,299.594675 C483.617914,299.939941 489.608077,309.837574 496.404608,321.806805 C499.060723,326.439458 501.611278,330.773297 503.760617,334.354949 L504.135687,334.979104 C507.287358,340.21649 509.497166,343.701449 509.767279,343.903846 C510.197511,344.172492 515.046512,336.640201 520.106437,328.297943 L520.534444,327.591191 L520.534444,327.591191 L521.186028,326.511058 L521.836643,325.427471 L522.484306,324.34373 L522.708948,323.966633 L522.708948,323.966633 L523.156097,323.214142 C527.834448,315.327845 531.949419,307.971044 532,306.960355 C532,306.453193 527.691726,298.606674 522.577453,289.608276 L522.155359,288.866215 C521.802221,288.245881 521.445753,287.620939 521.087078,286.993377 L520.655682,286.239171 L520.655682,286.239171 L520.009512,285.111697 C515.368623,277.02356 510.549456,268.830299 507.924152,264.722781 L505.159462,260.464497 Z M236.984468,112 L213.45433,112.000493 C197.670266,112.015338 191.810324,112.367784 191.021486,113.381065 C189.984727,114.647041 184.800932,123.278698 167.636811,152.396154 L164.411338,157.690237 L201.619467,220.298521 C222.124256,254.710059 240.670722,285.899112 242.974631,289.466864 L247.006472,296.142012 L269.008801,296.142012 C280.989128,296.142012 290.895936,295.681657 290.895936,295.221302 C290.895936,294.645858 273.155837,264.492604 251.614289,228.124556 C229.957546,191.756509 211.756666,160.912722 211.180689,159.646746 C210.14393,157.575148 211.871861,154.007396 221.893865,137.204438 C222.224683,136.637847 222.554591,136.073678 222.882939,135.512969 L223.374208,134.674633 C226.985725,128.515948 230.366465,122.84401 232.634345,119.064646 L232.943482,118.549717 C234.20072,116.456538 235.06792,115.02519 235.371732,114.531953 L236.984468,112 Z M206.227284,260.464497 L108.311157,260.464497 L97.9435672,277.382544 C92.183795,286.704734 87.4607818,294.645858 87.2278978,295.106213 C87.004558,295.557361 117.313726,296.008509 154.847227,296.026374 L159.467736,296.026511 C197.114173,296.013066 227.538442,295.67245 227.538442,295.221302 C227.538442,294.876036 226.271292,292.689349 224.888946,290.502663 C223.500318,288.368289 219.239267,281.582923 215.136694,275.009864 L214.654953,274.237836 C214.494738,273.981015 214.334949,273.724814 214.17577,273.469527 L206.227284,260.464497 Z M250.57753,120.056213 C250.231944,120.056213 245.393735,127.652071 239.97955,136.97426 C239.742576,137.378715 239.506872,137.781479 239.272737,138.182035 L238.806647,138.980051 C233.781917,147.590024 229.587275,155.002092 229.266373,155.963905 C228.690396,157.229882 234.680559,168.623669 247.467253,190.490533 C247.781737,191.029148 248.095287,191.56621 248.407712,192.101382 L249.031003,193.169108 C258.874194,210.03174 267.459423,224.775473 268.663215,226.743491 C271.493567,231.698062 274.694768,237.23123 277.991577,242.884686 L278.935886,244.502836 C279.409103,245.313152 279.883737,246.125032 280.358985,246.937139 L281.31006,248.561263 C281.766741,249.340608 282.223495,250.119342 282.679611,250.896283 L283.363218,252.060201 L283.363218,252.060201 L284.045337,253.220544 C288.927251,261.521399 293.653468,269.478424 297.342009,275.623016 L297.849866,276.468491 C301.773934,282.996919 304.409283,287.278428 304.604194,287.395266 C305.064975,287.740533 310.24877,279.68432 316.123738,269.556509 C325.68496,253.098817 326.721719,250.797041 325.68496,248.265089 C324.878592,246.768935 312.667875,225.477515 298.268444,200.963609 C296.697178,198.25442 295.099429,195.502061 293.492369,192.735637 L292.61497,191.225458 L291.736344,189.71354 C291.443333,189.209393 291.150221,188.705132 290.85711,188.20093 L289.977887,186.68868 C289.684883,186.184773 289.391984,185.681101 289.099294,185.177839 L288.22195,183.669456 L287.481018,182.395829 L287.481018,182.395829 L286.741799,181.12535 C276.037357,162.729299 265.991567,145.526417 261.751488,138.240237 C259.92033,135.119388 258.178701,132.177433 256.638222,129.606043 L256.257358,128.971026 C253.056729,123.640891 250.806425,120.056213 250.57753,120.056213 Z M426.250582,120.056213 C425.904996,120.056213 424.522651,122.012722 423.02511,124.314497 C421.741504,126.386095 418.172796,132.685443 414.567817,139.226376 L414.117168,140.044963 L413.667117,140.864336 C413.3675,141.410462 413.068932,141.955959 412.772716,142.498521 C412.311934,143.342505 411.845463,144.197856 411.378045,145.055575 L410.676798,146.342805 C407.172937,152.776586 403.749072,159.090483 402.405126,161.488166 C397.106135,170.925444 360.81957,236.756213 358.170075,241.589941 L355.635775,246.30858 L378.285107,246.308294 C396.073201,246.29882 398.969997,246.046178 399.986021,244.46716 L400.06847,244.329798 C400.12324,244.23848 400.177885,244.147196 400.233997,244.053064 L400.319465,243.909372 C401.652945,241.662309 404.183743,237.147515 427.287341,195.32426 L447.56174,158.380769 L443.414704,151.015089 C441.110795,146.986982 438.806886,142.613609 438.230909,141.347633 C437.654931,140.081657 436.042195,137.204438 434.65985,135.017751 C433.920679,133.742184 432.789524,131.761699 431.677968,129.715943 L431.203987,128.837059 C430.576811,127.664859 429.975235,126.501183 429.476055,125.465385 C427.978514,122.473077 426.480973,120.056213 426.250582,120.056213 Z M412.081543,112 L368.65286,112 L365.657779,117.409172 C362.201916,123.969231 347.456899,150.554734 331.905514,178.636391 C320.961947,198.431657 319.809992,201.423964 321.88351,203.610651 C322.574683,204.186095 324.763396,207.984024 326.95211,212.127219 C327.308051,212.799648 327.666537,213.474256 328.026342,214.14886 L328.458664,214.958243 C328.74372,215.491145 329.029293,216.023499 329.31478,216.554227 L329.956723,217.745167 C335.372023,227.771131 340.59208,236.918166 341.466736,237.792012 C342.157908,238.482544 354.829407,216.730769 369.344033,189.684911 C370.758521,186.858556 377.046832,175.621574 383.856544,163.273053 L384.37467,162.333172 L384.37467,162.333172 L384.894376,161.389727 C384.981102,161.232228 385.067876,161.074611 385.15469,160.91689 L385.682259,159.958004 C385.858228,159.638031 386.034285,159.317754 386.210357,158.997296 L386.738545,158.035503 C386.934804,157.683132 387.131625,157.329639 387.328905,156.975209 L387.922022,155.909291 L388.07066,155.642063 L388.07066,155.642063 L388.815525,154.302303 C389.213402,153.586387 389.612094,152.868575 390.010782,152.150351 L390.60871,151.072891 C390.813988,150.702876 391.019156,150.332947 391.224103,149.963309 L391.838168,148.855468 C398.174323,137.420956 404.190159,126.460065 406.552162,122.012722 L412.081543,112 Z" id="Combined-Shape" fill="#181B1D" fill-rule="nonzero"></path>
    </g>
</svg>