<?xml version="1.0" encoding="UTF-8"?>
<svg width="2716px" height="614px" viewBox="0 0 2716 614" version="1.1" xmlns="http://www.w3.org/2000/svg" xmlns:xlink="http://www.w3.org/1999/xlink">
    <title>edgeware_logo</title>
    <g id="edgeware_logo" stroke="none" stroke-width="1" fill="none" fill-rule="evenodd">
        <text id="Explorer" font-family="SFProDisplay-Heavy, SF Pro Display" font-size="500" font-weight="600" letter-spacing="-0.892857143" fill="#181B1D">
            <tspan x="744" y="485">Explorer</tspan>
        </text>
        <path d="M307,0 C476.551418,0 614,137.448582 614,307 C614,476.551418 476.551418,614 307,614 C137.448582,614 0,476.551418 0,307 C0,137.448582 137.448582,0 307,0 Z M337.645094,370.408284 C336.503236,372.272189 333.804297,377.035503 331.624385,381.073964 C329.444473,385.008876 326.018897,391.325444 323.942791,395.053254 C320.828631,400.54142 320.309604,402.198225 321.243852,403.85503 C322.385711,406.029586 340.966865,439.786982 345.845716,448.381657 C347.402796,451.177515 352.074036,459.772189 356.226249,467.227811 L363.804038,481 L384.193651,480.999076 C394.482634,480.977304 402.731038,480.574451 402.731038,480.171598 C402.731038,479.757396 402.315817,478.928994 401.79679,478.411243 C401.381569,477.789941 399.305462,474.372781 397.333161,470.64497 C395.360859,466.91716 392.765726,462.257396 391.623867,460.289941 C390.836379,458.933075 389.40705,456.394184 387.982828,453.82812 L387.556362,453.058641 C387.060506,452.162659 386.573201,451.277494 386.122185,450.452663 C384.253689,447.035503 381.55475,442.168639 380.101476,439.579882 C378.752006,436.991124 369.617137,420.526627 359.859436,402.819527 C350.101734,385.112426 341.589697,369.890533 340.966865,368.85503 C339.721201,367.094675 339.51359,367.198225 337.645094,370.408284 Z M306.6073,322.568047 C306.399689,322.568047 303.700751,326.91716 300.690396,332.094675 C290.828889,348.973373 276.192338,374.032544 273.90862,378.174556 C271.521098,382.316568 253.043748,414.106509 242.351799,432.331361 C238.926223,438.337278 235.708258,443.928994 235.396842,444.860947 C234.77401,446.414201 231.971266,446.621302 211.106394,446.724852 C198.384206,446.724852 187.588718,446.927164 187.138928,447.231809 L187.127362,447.242604 C187.015252,447.326479 187.175569,447.82554 187.751337,448.99252 L187.958843,449.406598 C189.695506,452.825 194.331452,460.921598 204.359047,478.100592 L206.019933,481 L253.977996,481 L278.164639,439.269231 C280.173272,435.836538 282.244967,432.292012 284.337332,428.709042 L285.594893,426.555234 C285.874751,426.075846 286.154826,425.596036 286.435017,425.115976 L287.27584,423.675227 C288.677457,421.273316 290.079468,418.869541 291.469314,416.485647 L292.30166,415.057871 C301.439206,399.382402 309.937375,384.762426 314.185089,377.449704 C320.62102,366.266272 325.915092,356.636095 325.915092,355.911243 C325.915092,355.186391 324.773233,352.908284 323.423764,350.733728 C322.074295,348.662722 317.818276,341.414201 313.977479,334.683432 C310.136681,328.056213 306.814911,322.568047 306.6073,322.568047 Z M351.866425,360.156805 L354.87678,365.43787 C356.555312,368.380769 361.897622,377.961936 367.459759,387.980434 L368.141702,389.208952 L368.483058,389.824061 L368.483058,389.824061 L369.165662,391.054393 C374.395712,400.482686 379.509785,409.738757 381.658556,413.692308 L382.648487,415.504676 C398.809314,445.073225 414.477649,472.827811 415.291483,473.233728 C415.81051,473.647929 416.537147,473.130178 416.952369,472.198225 C417.263785,471.266272 421.208387,464.017751 425.568211,456.147929 L426.044563,455.287962 C429.444234,449.149537 432.514684,443.58291 433.693179,441.253286 L433.828607,440.983005 C434.017085,440.60267 434.138848,440.336467 434.184054,440.201183 C434.599275,439.269231 432.315558,434.195266 428.786177,427.982249 C428.168173,426.884134 427.525018,425.73584 426.876097,424.574043 L426.144651,423.263258 C423.542576,418.59619 420.964565,413.933122 419.651307,411.621302 C418.403647,409.287686 414.812875,402.746832 410.85916,395.554284 L410.383098,394.688278 L410.383098,394.688278 L409.885116,393.782463 C409.219556,392.571865 408.54842,391.351256 407.880832,390.137017 L407.380949,389.227789 C407.214638,388.925281 407.048691,388.623428 406.883251,388.322485 C401.485374,378.588757 395.879886,368.337278 394.322806,365.54142 L391.416257,360.363905 L371.693244,360.260355 L351.866425,360.156805 Z M294.565881,309.106509 L254.704634,309.106509 L245.465959,325.363905 C244.615096,326.84077 243.755863,328.342681 242.906555,329.835422 L242.398307,330.729692 C238.259732,338.019443 234.447278,344.924726 233.113125,347.420118 C231.556045,350.526627 229.376133,354.254438 228.338079,355.704142 C227.403831,357.153846 224.082061,362.745562 221.175511,368.130178 C220.97026,368.49731 220.763561,368.867813 220.556171,369.240143 L220.140693,369.986781 C220.071368,370.111474 220.002023,370.236256 219.932684,370.36107 L219.516966,371.109874 C217.025872,375.599491 214.616902,379.98198 213.597722,381.591716 C211.053453,385.999852 205.745305,395.386065 200.52065,404.687076 L199.792456,405.98383 L199.572871,406.375026 L199.572871,406.375026 L199.134657,407.155942 C192.718279,418.592446 186.815946,429.211652 186.815946,429.431953 C186.815946,429.742604 195.639399,429.949704 206.435154,430.053254 L226.158167,430.053254 L250.241004,387.494083 C251.968325,384.438314 253.732486,381.319544 255.506805,378.184185 L256.326345,376.736087 L257.146745,375.286647 L257.509066,374.646571 L257.509066,374.646571 L258.595849,372.726829 L258.595849,372.726829 L259.681311,370.809654 C259.801794,370.596864 259.922228,370.384165 260.042604,370.171572 L260.764097,368.8974 C270.853407,351.07999 280.416154,334.21349 284.496764,326.91716 L294.565881,309.106509 Z M176.433562,315.42391 L110,315.423077 L111.141859,317.701183 C112.285974,319.808207 115.314149,324.836721 118.534136,330.057386 L119.030803,330.861713 L119.778485,332.069057 L119.778485,332.069057 L120.276728,332.871302 C124.091574,339.006657 127.750712,344.727811 128.477349,345.556213 C129.85796,347.22855 133.112257,347.405621 167.966273,347.419148 L171.363705,347.419982 L171.94872,347.420043 L171.94872,347.420043 L217.542325,347.420118 L225.223919,334.890533 C229.479938,328.056213 233.839762,321.221893 234.77401,319.668639 C235.708258,318.115385 236.539264,316.56213 236.539264,316.147929 C236.639409,315.746154 209.783043,315.441809 176.433562,315.42391 Z M459.304944,315.423077 L386.648464,315.423631 C350.025957,315.435503 320.724825,315.636391 320.724825,315.837278 C320.724825,315.943781 321.273877,316.912917 322.200804,318.466544 L322.5783,319.096844 C324.372661,322.082483 327.264526,326.760407 330.326447,331.623639 L330.764921,332.319484 C330.984637,332.667874 331.204994,333.016844 331.425656,333.365844 L332.088217,334.412384 C332.456438,334.993235 332.824565,335.572644 333.191034,336.148069 L333.6299,336.836504 C334.286706,337.865799 334.93611,338.878889 335.568988,339.860947 L340.447838,347.420118 L479.546984,347.420118 L474.252912,338.825444 C473.070273,336.994822 471.647319,334.780642 470.198045,332.515664 L469.406208,331.277183 C467.42652,328.178387 465.47024,325.097633 464.07999,322.878698 L459.304944,315.423077 Z M486.813357,264.579882 L413.734403,264.579882 C356.537665,264.579882 340.447838,264.890533 339.721201,265.822485 C339.690163,265.862973 339.650504,265.918745 339.602637,265.989082 L339.49608,266.148966 C338.421226,267.788708 334.68,274.163681 330.817327,280.856437 L330.26715,281.810439 C326.138745,288.974471 322.0095,296.2618 320.972592,298.303331 L320.852934,298.543977 C320.768943,298.717825 320.724825,298.823964 320.724825,298.85503 C320.724825,299.053846 350.859929,299.252663 388.721098,299.26825 L391.097279,299.268984 L391.694325,299.269092 L391.694325,299.269092 L397.070022,299.269787 C435.414822,299.28175 466.583774,299.485651 466.986539,299.786982 C467.40176,300.097633 472.799638,309.002959 478.924152,319.772189 C483.914497,328.462744 488.49133,335.984558 490.239941,338.640439 L490.391047,338.868375 C490.701271,339.332747 490.89893,339.603989 490.965571,339.653846 C491.796013,340.171598 510.896195,308.485207 511,306.414201 C511,305.901627 506.101426,297.056879 500.777368,287.770462 L500.195088,286.756026 C496.013074,279.478781 491.670409,272.106953 489.304685,268.411243 L486.813357,264.579882 Z M245.154543,131 L223.88489,131.000508 C209.711226,131.014785 204.445954,131.332324 203.736215,132.242604 C202.801967,133.381657 198.130727,141.147929 182.663733,167.346154 L179.757184,172.109467 L213.286306,228.440828 C231.763655,259.402367 248.476314,287.464497 250.55242,290.674556 L254.185607,296.680473 L274.012426,296.680473 C284.80818,296.680473 293.735439,296.266272 293.735439,295.852071 C293.735439,295.33432 277.749418,268.204142 258.33782,235.482249 C238.822418,202.760355 222.421175,175.008876 221.902149,173.869822 C220.967901,172.005917 222.524981,168.795858 231.556045,153.677515 C234.749155,148.21706 237.848303,143.006555 240.130906,139.195861 L240.475536,138.620799 C242.165501,135.802261 243.350377,133.846904 243.701268,133.278107 L245.154543,131 Z M217.438519,264.579882 L129.203987,264.579882 L119.861507,279.801775 C114.67124,288.189349 110.415221,295.33432 110.205364,295.748521 C110.004107,296.154438 137.316414,296.560355 171.138737,296.576429 L176.338824,296.57609 C209.783136,296.558191 236.642506,296.253846 236.642506,295.852071 C236.642506,295.54142 235.500647,293.573964 234.254983,291.606509 C233.196576,289.982191 230.286355,285.36403 227.177054,280.399899 L226.709373,279.653015 C226.396865,279.153804 226.083193,278.652457 225.770009,278.151623 L225.300807,277.401086 C225.066595,277.026341 224.833123,276.652628 224.601087,276.281065 L217.438519,264.579882 Z M257.403572,138.248521 C257.31526,138.248521 256.90138,138.798128 256.242421,139.776908 L256.026275,140.100121 C254.308143,142.685313 251.20314,147.711781 247.853482,153.470414 C242.870826,161.961538 238.511002,169.62426 238.199586,170.556213 C237.680559,171.695266 243.078436,181.946746 254.600828,201.621302 C264.047114,217.775148 272.559151,232.37574 273.70101,234.239645 C276.636105,239.369699 280.013765,245.189183 283.455991,251.069646 L284.835428,253.423594 C285.06561,253.815965 285.295854,254.208233 285.52605,254.600215 L286.382889,256.058321 C286.875194,256.895558 287.366637,257.730416 287.856118,258.561067 L288.442483,259.555712 C297.514358,274.937777 305.755214,288.611306 306.088273,288.810651 C306.503495,289.121302 311.174735,281.872781 316.468807,272.760355 C325.084649,257.952663 326.018897,255.881657 325.084649,253.60355 C324.358012,252.257396 313.354647,233.100592 300.37898,211.044379 C299.864106,210.157988 299.346075,209.266462 298.825634,208.371058 L298.043255,207.025202 C297.128588,205.452012 296.207674,203.868878 295.284501,202.282546 L294.492751,200.922208 L293.304271,198.880831 L293.304271,198.880831 L292.512197,197.52071 L291.720969,196.162329 L291.012771,194.946724 C280.989863,177.744154 271.428031,161.39594 267.47269,154.609467 C262.178618,145.600592 257.714988,138.248521 257.403572,138.248521 Z M415.706705,138.248521 C415.395289,138.248521 414.149625,140.008876 412.800155,142.079882 C411.450686,144.254438 407.298473,151.606509 403.561481,158.440828 C403.268383,158.976853 402.972732,159.517974 402.676028,160.061344 L402.230372,160.877727 L401.784265,161.695348 L401.348942,162.493533 C398.306395,168.07317 395.388615,173.443162 394.219001,175.526627 C392.246015,179.035048 385.505813,191.20591 378.106314,204.588621 L377.55018,205.59448 C377.085811,206.434395 376.619268,207.278317 376.151554,208.124426 L375.589799,209.14069 L375.589799,209.14069 L375.027305,210.158355 L375.027305,210.158355 L373.937555,212.130106 C373.659737,212.632807 373.382063,213.135271 373.104739,213.637119 L372.550624,214.639882 C363.786511,230.500409 355.514508,245.490488 354.357753,247.597633 L352.074036,251.843195 L371.485633,251.843195 C371.824038,251.843195 372.156755,251.843112 372.483883,251.842938 L373.4486,251.842135 C388.618994,251.824639 391.142211,251.578107 392.039089,250.186391 L392.113385,250.0628 C392.149661,250.002411 392.185876,249.942037 392.222599,249.880651 L392.296894,249.756224 C393.489309,247.755085 395.57283,244.050518 416.640953,205.970414 L434.910691,172.730769 L431.173699,166.10355 C429.097593,162.47929 427.021486,158.544379 426.502459,157.405325 C425.983433,156.266272 424.530158,153.677515 423.284494,151.710059 C422.142635,149.742604 419.962723,145.911243 418.613254,143.115385 C417.263785,140.423077 415.914315,138.248521 415.706705,138.248521 Z M402.938649,131 L363.804038,131 L361.1051,135.866864 C358.324155,141.137678 347.430823,160.776729 335.152011,182.911808 L334.366441,184.327961 C333.841559,185.27417 333.314427,186.224441 332.785565,187.177861 L331.949155,188.685742 C331.809539,188.937447 331.669822,189.189336 331.530013,189.441394 L330.690137,190.955621 C320.828631,208.766272 319.790577,211.45858 321.659073,213.426036 C322.281905,213.943787 324.254207,217.360947 326.226508,221.088757 L326.840715,222.244476 L326.840715,222.244476 L327.252435,223.016102 C327.32117,223.14472 327.389955,223.273333 327.45878,223.401922 L327.872127,224.173015 C328.078956,224.558268 328.285955,224.942967 328.49284,225.326608 L328.906376,226.09233 C333.796103,235.133133 338.516318,243.392751 339.30598,244.180473 C339.928812,244.801775 351.347398,225.230769 364.42687,200.89645 C365.77634,198.204142 372.048618,187.029691 378.589413,175.166465 L379.345047,173.795018 C379.42908,173.642394 379.513128,173.489706 379.59718,173.336971 L380.101476,172.420118 C380.875807,171.031985 381.659845,169.624487 382.445849,168.211626 L383.035601,167.151192 C383.33054,166.620692 383.625484,166.089929 383.920024,165.559642 L384.508446,164.499921 C390.286928,154.089882 395.804136,144.054334 397.955993,140.008876 L402.938649,131 Z" id="Combined-Shape" fill="#181B1D" fill-rule="nonzero"></path>
    </g>
</svg>